<svg width="16" height="12" viewBox="0 0 16 12" fill="#8a5d26" xmlns="http://www.w3.org/2000/svg">
<path d="M8.375 0.84375C4.9375 0.84375 2.00188 2.98188 0.8125 6C2.00188 9.01812 4.9375 11.1562 8.375 11.1562C11.8125 11.1562 14.7481 9.01812 15.9375 6C14.7481 2.98188 11.8125 0.84375 8.375 0.84375ZM8.375 9.4375C6.4775 9.4375 4.9375 7.8975 4.9375 6C4.9375 4.1025 6.4775 2.5625 8.375 2.5625C10.2725 2.5625 11.8125 4.1025 11.8125 6C11.8125 7.8975 10.2725 9.4375 8.375 9.4375ZM8.375 3.9375C7.23375 3.9375 6.3125 4.85875 6.3125 6C6.3125 7.14125 7.23375 8.0625 8.375 8.0625C9.51625 8.0625 10.4375 7.14125 10.4375 6C10.4375 4.85875 9.51625 3.9375 8.375 3.9375Z" fill="white" fill-opacity="0.56"/>
</svg>
